<?xml version="1.0" encoding="UTF-8"?>
<svg id="Camada_1" data-name="Camada 1" xmlns="http://www.w3.org/2000/svg" version="1.1" viewBox="0 0 512 512">
  <defs>
    <style>
      .cls-1 {
        fill: #020202;
      }

      .cls-1, .cls-2, .cls-3 {
        stroke-width: 0px;
      }

      .cls-2 {
        fill: #ffff05;
      }

      .cls-3 {
        fill: #fff004;
      }
    </style>
  </defs>
  <circle class="cls-2" cx="256" cy="256" r="251.8"/>
  <circle class="cls-1" cx="256" cy="256" r="234.8"/>
  <circle class="cls-2" cx="256" cy="256" r="178"/>
  <g>
    <path class="cls-2" d="M72.7,205.9l-10.4,3.8,8.9,2.2-1.6,6.5-20.6-5,1.6-6.5,8.7,2.1-7.2-8,1.8-7.3,8.1,9.5,12.5-5-1.8,7.7Z"/>
    <path class="cls-2" d="M78.7,187l-8.5,1.2h0s7.1,2.6,7.1,2.6l-2.3,6.2-19.9-7.2,3.4-9.3c.6-1.6,1.4-2.9,2.4-3.8,1-.9,2.1-1.5,3.3-1.7,1.2-.2,2.4-.1,3.6.3,1.3.5,2.4,1.3,3.1,2.4.8,1.1,1.1,2.4,1.1,4l9.2-1.6-2.5,6.9ZM66,186.6l.9-2.5c.2-.6.2-1.1,0-1.5-.2-.4-.5-.7-1.1-.9-.5-.2-1-.2-1.4,0-.4.2-.7.6-.9,1.2l-.9,2.5,3.4,1.2Z"/>
    <path class="cls-2" d="M84.9,165.1l-3.1,6.3,2.4,2.4-3.1,6.2-15.6-16.3,3.4-6.9,22.4,2.5-3.1,6.3-3.3-.5ZM79.7,164.3l-6.1-.9,4.4,4.3,1.7-3.4Z"/>
    <path class="cls-2" d="M85.7,129.1l13.9,17.5-4.7,7.2-21.6-5.6,3.8-5.9,14.6,4.3-9.8-11.6,3.8-5.9Z"/>
    <path class="cls-2" d="M108.2,102.9l15.7,14.2-4.4,4.9-7.8-7.1,5.7,9.5-3.8,4.2-10-4.7,7.8,7.1-4.4,4.9-15.7-14.2,5.4-6,12.6,5-6.4-11.9,5.4-6Z"/>
    <path class="cls-2" d="M134,104.4l-5.4,4.6,1.3,3.1-5.3,4.5-7.8-21.1,5.8-5,19.6,11.1-5.3,4.5-2.9-1.8ZM129.6,101.6l-5.3-3.2,2.4,5.7,2.9-2.5Z"/>
    <path class="cls-2" d="M146.1,82.3c-.4-.2-.9-.3-1.5-.2-.5,0-1.1.3-1.6.7-1.1.7-1.7,1.6-1.8,2.7-.1,1.1.2,2.2,1,3.4.9,1.4,1.9,2.2,3,2.4,1.1.2,2.3,0,3.7-1,1.3-.9,2-2.1,2.1-3.6l-4.4,2.9-2.6-3.9,9-6,3.7,5.5c.1,1.8-.2,3.6-.9,5.5-.7,1.8-2.1,3.4-4.2,4.8-1.8,1.2-3.7,1.9-5.5,2-1.9.1-3.6-.2-5.2-1.1-1.6-.9-3-2.2-4.2-3.9-1.2-1.7-1.8-3.5-2-5.4-.2-1.8.1-3.6,1-5.2.8-1.7,2.2-3.1,4-4.3,2.3-1.5,4.6-2.2,6.7-2.1,2.2.1,4.1,1.1,5.6,2.8l-5.8,3.9Z"/>
    <path class="cls-2" d="M171.9,80.1l-6.3,3.2.5,3.3-6.2,3.2-2.7-22.4,6.8-3.5,16.5,15.4-6.2,3.2-2.4-2.4ZM168.2,76.3l-4.4-4.4,1,6.1,3.4-1.7Z"/>
    <path class="cls-2" d="M193,52.3l4.5,12.9c.8,2.4.9,4.4,0,6.1-.8,1.7-2.4,2.9-4.6,3.7-2.4.9-4.6.9-6.5,0-1.9-.8-3.3-2.5-4.2-5.1l6.2-2.2c.3.8.6,1.3,1,1.6.4.2.8.3,1.2.1.4-.1.6-.4.7-.7s0-.8-.1-1.4l-4.5-12.9,6.2-2.2Z"/>
    <path class="cls-2" d="M214.7,65.2l-6.9,1.6-.3,3.4-6.8,1.6,2.6-22.4,7.4-1.8,12.4,18.8-6.8,1.6-1.8-2.9ZM212,60.7l-3.2-5.3-.5,6.2,3.7-.9Z"/>
    <path class="cls-2" d="M228.2,44.7l1.4,11.8c.1,1,.4,1.7.9,2.2.5.5,1.2.7,2.2.6,1-.1,1.6-.5,2-1.1.4-.6.5-1.4.4-2.4l-1.4-11.8,6.6-.8,1.4,11.8c.2,2,0,3.8-.6,5.3-.7,1.5-1.7,2.7-3,3.6-1.4.9-2.9,1.4-4.7,1.6s-3.4,0-4.9-.5c-1.5-.5-2.7-1.5-3.6-2.8s-1.5-3-1.8-5l-1.4-11.8,6.6-.8ZM234.3,39.9l-7.4,3.7-.5-4.4,7.3-4.2.6,4.9Z"/>
    <path class="cls-2" d="M282.5,65.8l-5-9.9-1.1,9.1-6.6-.8,2.6-21,6.6.8-1.1,8.8,7.1-8.1,7.5.9-8.5,9.2,6.4,11.9-7.8-1Z"/>
    <path class="cls-2" d="M302,69.6l-2.1-8.3h0s-1.8,7.4-1.8,7.4l-6.5-1.5,4.9-20.6,9.6,2.3c1.7.4,3,1,4.1,1.9,1,.9,1.7,1.9,2.1,3,.3,1.2.4,2.4,0,3.7-.3,1.4-1,2.5-2,3.4-1,.9-2.3,1.4-3.8,1.5l2.6,8.9-7.1-1.7ZM300.8,57l2.6.6c.6.1,1.1.1,1.5,0s.6-.6.8-1.2c.1-.5,0-1-.2-1.4-.2-.4-.7-.7-1.3-.8l-2.6-.6-.8,3.5Z"/>
    <path class="cls-2" d="M324.4,73.3l-6.6-2.4-2.1,2.7-6.6-2.4,14.5-17.3,7.2,2.6v22.5c0,0-6.5-2.4-6.5-2.4v-3.4ZM324.6,68.1l.2-6.2-3.8,4.9,3.6,1.3Z"/>
    <path class="cls-2" d="M360.2,70.1l-15.8,15.8-7.7-3.8,3.1-22.1,6.3,3.2-2.6,15,10.4-11.1,6.3,3.2Z"/>
    <path class="cls-2" d="M388.8,89.5l-12.3,17.2-5.4-3.8,6.1-8.6-8.8,6.7-4.6-3.3,3.5-10.5-6.1,8.6-5.4-3.9,12.3-17.2,6.6,4.7-3.6,13,11.1-7.7,6.6,4.7Z"/>
    <path class="cls-2" d="M390.2,115.3l-5.1-4.8-3,1.6-5.1-4.8,20.1-10.1,5.6,5.2-8.9,20.7-5.1-4.8,1.4-3ZM392.5,110.6l2.6-5.6-5.4,3,2.8,2.6Z"/>
    <path class="cls-2" d="M413.5,124.8c.2-.5.2-1,0-1.5s-.4-1-.9-1.5c-.8-1-1.8-1.5-2.9-1.5-1.1,0-2.2.5-3.3,1.4-1.3,1.1-2,2.2-2.1,3.3-.1,1.1.3,2.3,1.4,3.5,1,1.2,2.3,1.7,3.8,1.6l-3.4-4,3.6-3,7,8.3-5.1,4.3c-1.8.3-3.6.2-5.5-.3-1.9-.5-3.7-1.7-5.2-3.6-1.4-1.7-2.3-3.4-2.7-5.3-.4-1.8-.2-3.6.5-5.3s1.8-3.3,3.4-4.6,3.3-2.2,5.1-2.6c1.8-.4,3.6-.3,5.3.4,1.7.6,3.3,1.8,4.7,3.5,1.8,2.1,2.7,4.3,2.8,6.5s-.6,4.2-2.2,5.9l-4.5-5.3Z"/>
    <path class="cls-2" d="M418.7,150.3l-3.9-5.9-3.2.9-3.8-5.8,21.9-5.2,4.2,6.4-13.4,18.1-3.9-5.8,2.1-2.6ZM421.9,146.2l3.9-4.8-6,1.6,2.1,3.2Z"/>
    <path class="cls-2" d="M448.6,168.1l-12.3,6c-2.3,1.1-4.3,1.4-6,.7-1.8-.6-3.2-2-4.2-4.2-1.1-2.3-1.4-4.5-.8-6.4.6-2,2.1-3.6,4.6-4.8l2.9,5.9c-.8.4-1.3.8-1.4,1.2-.2.4-.2.8,0,1.3.2.4.4.6.8.7.3,0,.8,0,1.4-.3l12.3-6,2.9,5.9Z"/>
    <path class="cls-2" d="M438.2,191.1l-2.4-6.6h-3.4c0,.1-2.4-6.4-2.4-6.4h22.5c0,0,2.6,7.3,2.6,7.3l-17.3,14.5-2.4-6.6,2.7-2.1ZM442.4,187.9l4.9-3.8-6.2.2,1.3,3.6Z"/>
    <path class="cls-2" d="M460.2,202.1l-11.6,2.7c-1,.2-1.7.6-2.1,1.2-.5.5-.6,1.3-.4,2.2.2.9.7,1.6,1.3,1.9s1.5.4,2.4.1l11.6-2.7,1.5,6.4-11.6,2.7c-2,.5-3.7.4-5.3,0-1.6-.5-2.9-1.4-3.9-2.6-1-1.3-1.8-2.8-2.2-4.5-.4-1.7-.4-3.4,0-4.9.4-1.5,1.2-2.8,2.4-3.9,1.2-1.1,2.8-1.9,4.8-2.3l11.6-2.7,1.5,6.4ZM465.6,207.6l-4.5-6.9,4.3-1,5,6.8-4.8,1.1Z"/>
  </g>
  <g>
    <path class="cls-2" d="M49,316.8l7.3-8.3-8.9,2.4-1.7-6.4,20.5-5.4,1.7,6.4-8.6,2.3,10.2,3.6,1.9,7.3-11.7-4.5-8.7,10.3-2-7.6Z"/>
    <path class="cls-2" d="M56.2,337.9l5.7-6.4h0s-7.1,2.7-7.1,2.7l-2.4-6.2,19.8-7.6,3.5,9.2c.6,1.6.9,3.1.7,4.4-.1,1.4-.6,2.5-1.3,3.4-.8.9-1.8,1.7-3,2.1-1.3.5-2.6.6-3.9.3-1.3-.3-2.4-1.1-3.4-2.3l-5.9,7.2-2.6-6.8ZM65.9,329.8l.9,2.5c.2.6.5,1,.9,1.2.4.2.9.2,1.4,0,.5-.2.9-.5,1.1-.9.2-.4.2-.9,0-1.5l-.9-2.5-3.3,1.3Z"/>
    <path class="cls-2" d="M69.5,358.9l-3.2-6.3-3.3.5-3.2-6.2,22.4-2.8,3.5,6.8-15.3,16.6-3.2-6.2,2.4-2.4ZM73.1,355.2l4.4-4.4-6.1,1,1.8,3.4Z"/>
    <path class="cls-2" d="M101.6,376.3l-21.5,5.9-4.8-7.1,13.6-17.7,3.9,5.9-9.6,11.8,14.5-4.5,3.9,5.9Z"/>
    <path class="cls-2" d="M122.5,399.7l-15.5,14.4-4.5-4.8,7.7-7.2-10,4.8-3.9-4.2,5.5-9.6-7.7,7.2-4.5-4.9,15.5-14.4,5.5,6-6.2,12.1,12.4-5.3,5.5,5.9Z"/>
    <path class="cls-2" d="M123.4,423.7l-5.4-4.5-2.9,1.8-5.4-4.5,19.5-11.3,5.9,4.9-7.6,21.2-5.4-4.5,1.2-3.1ZM125.3,418.9l2.3-5.8-5.2,3.3,2.9,2.4Z"/>
    <path class="cls-2" d="M148.8,428.8c0-.5-.1-1-.4-1.4-.3-.5-.7-.9-1.3-1.2-1.1-.7-2.1-.9-3.2-.6-1,.3-1.9,1.1-2.7,2.3-.9,1.4-1.3,2.6-1.1,3.7.2,1.1,1,2.1,2.3,3,1.3.8,2.7,1,4.1.5l-4.4-2.9,2.6-3.9,9,5.9-3.6,5.6c-1.6.8-3.4,1.3-5.4,1.3-2,0-4-.6-6.1-1.9-1.8-1.2-3.2-2.6-4-4.3-.9-1.6-1.2-3.4-1-5.2.2-1.8.8-3.6,2-5.4s2.5-3.1,4.1-4c1.6-.9,3.4-1.3,5.2-1.2,1.8.1,3.7.8,5.5,2,2.3,1.5,3.8,3.3,4.6,5.4.7,2.1.6,4.2-.4,6.2l-5.9-3.8Z"/>
    <path class="cls-2" d="M164.5,449.7l-6.3-3.2-2.4,2.4-6.2-3.1,16.4-15.5,6.8,3.4-2.6,22.4-6.3-3.1.5-3.3ZM165.3,444.5l.9-6.1-4.3,4.4,3.4,1.7Z"/>
    <path class="cls-2" d="M199.4,444.2l-4.5,12.9c-.8,2.4-2.1,4-3.8,4.8-1.7.8-3.7.8-5.9,0-2.4-.8-4.1-2.2-5.1-4s-1-4-.1-6.6l6.2,2.2c-.3.8-.3,1.4-.2,1.8.1.4.4.7.9.9.4.1.7.1,1,0,.3-.2.5-.6.8-1.2l4.5-12.9,6.2,2.2Z"/>
    <path class="cls-2" d="M210.8,465.6l-6.9-1.6-1.8,2.9-6.8-1.6,12.4-18.8,7.5,1.8,2.7,22.4-6.8-1.6-.3-3.4ZM210.4,460.4l-.5-6.2-3.2,5.3,3.7.9Z"/>
    <path class="cls-2" d="M230.2,450.7l-1.4,11.8c-.1,1,0,1.8.4,2.4.4.6,1,1,2,1.1,1,.1,1.7,0,2.2-.6.5-.5.8-1.2,1-2.2l1.4-11.8,6.6.8-1.4,11.8c-.2,2-.9,3.7-1.9,5-1,1.3-2.3,2.2-3.8,2.8-1.5.5-3.2.7-5,.5s-3.3-.8-4.6-1.6c-1.3-.9-2.2-2.1-2.8-3.6-.6-1.5-.8-3.3-.5-5.3l1.4-11.8,6.6.8ZM237.3,447.5l-8,1.9.5-4.4,8.1-2.4-.6,4.9Z"/>
    <path class="cls-2" d="M284.8,471.7l-7.2-8.4,1.1,9.1-6.6.8-2.5-21,6.6-.8,1.1,8.8,5-9.6,7.5-.9-6,10.9,9,10-7.8.9Z"/>
    <path class="cls-2" d="M306.6,467.6l-5.6-6.5h0s1.7,7.4,1.7,7.4l-6.5,1.5-4.8-20.6,9.6-2.2c1.7-.4,3.2-.4,4.5-.1,1.3.3,2.4.9,3.2,1.8.8.9,1.4,2,1.7,3.2.3,1.4.2,2.7-.3,3.9-.5,1.2-1.4,2.3-2.8,3.1l6.3,6.9-7.1,1.6ZM300,456.8l2.6-.6c.6-.1,1.1-.4,1.3-.7.2-.4.3-.8.2-1.4-.1-.5-.4-.9-.8-1.2-.4-.2-.9-.3-1.5-.1l-2.6.6.8,3.5Z"/>
    <path class="cls-2" d="M329.3,457.4l-6.7,2.3v3.4c0,0-6.5,2.3-6.5,2.3l.3-22.5,7.2-2.5,14.3,17.4-6.6,2.3-2-2.7ZM326.1,453.2l-3.8-4.9v6.2c.1,0,3.8-1.3,3.8-1.3Z"/>
    <path class="cls-2" d="M351,427.9l2.9,22.2-7.7,3.8-15.7-15.9,6.3-3.1,10.3,11.2-2.5-15,6.3-3.1Z"/>
    <path class="cls-2" d="M377.1,410.5l12.1,17.4-5.4,3.8-6-8.7,3.4,10.5-4.7,3.2-8.7-6.8,6,8.7-5.4,3.8-12.1-17.4,6.7-4.7,11.1,7.8-3.5-13,6.6-4.6Z"/>
    <path class="cls-2" d="M401,413l-5.2,4.8,1.4,3.1-5.2,4.7-8.5-20.9,5.7-5.2,20,10.5-5.2,4.7-2.9-1.7ZM396.5,410.4l-5.4-3.1,2.5,5.6,2.8-2.6Z"/>
    <path class="cls-2" d="M409.5,388.4c-.5,0-1,0-1.5.2-.5.2-1,.6-1.4,1.1-.8,1-1.2,2-1,3,.2,1.1.8,2.1,1.9,3,1.2,1.1,2.4,1.6,3.6,1.6,1.1,0,2.2-.7,3.3-1.9,1-1.2,1.4-2.5,1-4l-3.5,4-3.5-3.1,7.1-8.1,5,4.4c.6,1.7.8,3.6.6,5.5-.2,2-1.1,3.9-2.8,5.7-1.4,1.7-3,2.8-4.8,3.4-1.8.6-3.5.7-5.3.3s-3.5-1.3-5.1-2.7c-1.6-1.4-2.7-2.9-3.4-4.7s-.8-3.5-.4-5.3c.4-1.8,1.3-3.5,2.7-5.2,1.8-2.1,3.8-3.3,6-3.8,2.2-.4,4.2,0,6.1,1.2l-4.6,5.3Z"/>
    <path class="cls-2" d="M432.4,375.8l-4,5.8,2,2.7-4,5.7-13-18.4,4.3-6.3,21.8,5.7-4,5.8-3.2-1ZM427.4,374.3l-5.9-1.8,3.8,4.9,2.2-3.2Z"/>
    <path class="cls-2" d="M431.8,340.5l12.2,6.2c2.3,1.2,3.7,2.6,4.2,4.4.6,1.8.3,3.7-.8,5.9-1.2,2.3-2.7,3.8-4.7,4.5-2,.7-4.1.4-6.5-.8l3-5.8c.8.4,1.4.5,1.8.5.4,0,.8-.3,1-.8.2-.4.2-.7,0-1-.1-.3-.5-.6-1-.9l-12.2-6.2,3-5.9Z"/>
    <path class="cls-2" d="M454.6,332.2l-2.6,6.6,2.6,2.1-2.5,6.5-16.9-14.9,2.8-7.1,22.5.5-2.5,6.5-3.4-.2ZM449.3,331.9l-6.2-.4,4.8,3.9,1.4-3.6Z"/>
    <path class="cls-2" d="M440.4,303.5l.7,8.2-4.3-1.1-1.2-8.3,4.7,1.3ZM442.6,310.9l11.5,3c.9.2,1.7.2,2.4,0,.7-.3,1.1-.9,1.4-1.8.2-.9.1-1.7-.3-2.3-.4-.6-1.1-1-2.1-1.3l-11.5-3,1.7-6.4,11.5,3c1.9.5,3.5,1.4,4.7,2.5,1.2,1.2,1.9,2.6,2.2,4.1.3,1.6.3,3.3-.2,5-.5,1.7-1.2,3.2-2.3,4.3-1,1.2-2.4,1.9-3.9,2.3s-3.3.3-5.3-.2l-11.5-3,1.7-6.4Z"/>
  </g>
  <circle class="cls-1" cx="256" cy="256" r="163.3"/>
  <path class="cls-3" d="M170.4,230.4l18.4-8.2v37.6s73.4-26.6,132.6-10.3c59.2,16.3,63.8,58.2,56.4,74.1-7.4,16-38.3,50-38.3,50h-125.9v-17s44-13.1,52.5-33c8.5-19.9-78-16.3-78-16.3v41.5h-17.7v-39.7s-31.2,1.1-53.2,13.5c0,0,46-32.6,131.7-24.6,85.7,8,24.7,38.8,24.7,38.8l-34.4,18.4h90.8s21.6-28.7,11.3-53.9c-10.3-25.2-56.7-41.8-109.9-37.2-53.2,4.6-107.4,33.9-107.4,33.9l48.6-30.3-2.1-37.2Z"/>
  <g>
    <path class="cls-3" d="M183,161.2v4.6h11.5v8.8h-11.5v5.2h13.1v9.3h-24.8v-37.1h24.8v9.3h-13.1Z"/>
    <path class="cls-3" d="M219.2,189.1l-7-13.3h0v13.3h-11.6v-37.1h17.3c3,0,5.6.5,7.7,1.6,2.1,1.1,3.7,2.5,4.8,4.4,1.1,1.8,1.6,3.9,1.6,6.2s-.7,4.7-2.1,6.6c-1.4,1.9-3.4,3.3-6,4.1l8.1,14.2h-12.8ZM212.2,168h4.6c1.1,0,2-.3,2.5-.8.6-.5.8-1.3.8-2.4s-.3-1.7-.9-2.3c-.6-.6-1.4-.8-2.5-.8h-4.6v6.3Z"/>
    <path class="cls-3" d="M247.3,151.9v37.1h-11.6v-37.1h11.6Z"/>
    <path class="cls-3" d="M253.8,160.6c1.5-2.9,3.6-5.1,6.4-6.7,2.8-1.6,6-2.4,9.8-2.4s6.1.6,8.6,1.8c2.5,1.2,4.6,2.9,6.2,5.1,1.6,2.2,2.6,4.8,3.2,7.7h-12.3c-.6-1.2-1.4-2.2-2.4-2.9-1-.7-2.2-1-3.5-1-2,0-3.5.7-4.6,2.2-1.1,1.5-1.7,3.4-1.7,5.9s.6,4.5,1.7,5.9c1.1,1.5,2.7,2.2,4.6,2.2s2.5-.3,3.5-1c1-.7,1.8-1.6,2.4-2.9h12.3c-.5,2.9-1.6,5.5-3.2,7.7-1.6,2.2-3.7,3.9-6.2,5.1-2.5,1.2-5.4,1.8-8.6,1.8s-7-.8-9.8-2.4c-2.8-1.6-4.9-3.8-6.4-6.7-1.5-2.9-2.2-6.1-2.2-9.8s.7-6.9,2.2-9.8Z"/>
    <path class="cls-3" d="M314.5,189.1l-10.8-16.1v16.1h-11.6v-37.1h11.6v15.6l10.6-15.6h13.2l-12.8,17.8,13.6,19.4h-13.8Z"/>
  </g>
</svg>